<mxfile host="app.diagrams.net" modified="2023-11-28T10:10:06.354Z" agent="Mozilla/5.0 (Windows NT 10.0; Win64; x64) AppleWebKit/537.36 (KHTML, like Gecko) Chrome/119.0.0.0 Safari/537.36" etag="XnkRA8gZq6u8qJUrM7P6" version="22.1.4" type="device">
  <diagram id="C5RBs43oDa-KdzZeNtuy" name="Page-1">
    <mxGraphModel dx="1304" dy="713" grid="1" gridSize="10" guides="1" tooltips="1" connect="1" arrows="1" fold="1" page="1" pageScale="1" pageWidth="827" pageHeight="1169" math="0" shadow="0">
      <root>
        <mxCell id="WIyWlLk6GJQsqaUBKTNV-0" />
        <mxCell id="WIyWlLk6GJQsqaUBKTNV-1" parent="WIyWlLk6GJQsqaUBKTNV-0" />
        <mxCell id="KwxrxgcA9bd_IWMUB1Oh-1" value="Fungsi Main()" style="text;html=1;strokeColor=none;fillColor=none;align=center;verticalAlign=middle;whiteSpace=wrap;rounded=0;fontStyle=1;fontSize=22;" vertex="1" parent="WIyWlLk6GJQsqaUBKTNV-1">
          <mxGeometry x="60" y="30" width="160" height="30" as="geometry" />
        </mxCell>
        <mxCell id="KwxrxgcA9bd_IWMUB1Oh-44" value="" style="edgeStyle=orthogonalEdgeStyle;rounded=0;orthogonalLoop=1;jettySize=auto;html=1;" edge="1" parent="WIyWlLk6GJQsqaUBKTNV-1" source="KwxrxgcA9bd_IWMUB1Oh-2" target="KwxrxgcA9bd_IWMUB1Oh-43">
          <mxGeometry relative="1" as="geometry" />
        </mxCell>
        <mxCell id="KwxrxgcA9bd_IWMUB1Oh-2" value="Start" style="ellipse;whiteSpace=wrap;html=1;" vertex="1" parent="WIyWlLk6GJQsqaUBKTNV-1">
          <mxGeometry x="120" y="70" width="120" height="80" as="geometry" />
        </mxCell>
        <mxCell id="KwxrxgcA9bd_IWMUB1Oh-7" style="edgeStyle=orthogonalEdgeStyle;rounded=0;orthogonalLoop=1;jettySize=auto;html=1;" edge="1" parent="WIyWlLk6GJQsqaUBKTNV-1" source="KwxrxgcA9bd_IWMUB1Oh-3" target="KwxrxgcA9bd_IWMUB1Oh-6">
          <mxGeometry relative="1" as="geometry" />
        </mxCell>
        <mxCell id="KwxrxgcA9bd_IWMUB1Oh-3" value="perhitunganIteratif&lt;br&gt;(int n)" style="shape=process;whiteSpace=wrap;html=1;backgroundOutline=1;fillColor=#FF99CC;" vertex="1" parent="WIyWlLk6GJQsqaUBKTNV-1">
          <mxGeometry x="100" y="320" width="160" height="80" as="geometry" />
        </mxCell>
        <mxCell id="KwxrxgcA9bd_IWMUB1Oh-9" value="" style="edgeStyle=orthogonalEdgeStyle;rounded=0;orthogonalLoop=1;jettySize=auto;html=1;" edge="1" parent="WIyWlLk6GJQsqaUBKTNV-1" source="KwxrxgcA9bd_IWMUB1Oh-6" target="KwxrxgcA9bd_IWMUB1Oh-8">
          <mxGeometry relative="1" as="geometry" />
        </mxCell>
        <mxCell id="KwxrxgcA9bd_IWMUB1Oh-6" value="perhitunganRekursif&lt;br&gt;(int n)" style="shape=process;whiteSpace=wrap;html=1;backgroundOutline=1;fillColor=#99FFFF;" vertex="1" parent="WIyWlLk6GJQsqaUBKTNV-1">
          <mxGeometry x="100" y="450" width="160" height="80" as="geometry" />
        </mxCell>
        <mxCell id="KwxrxgcA9bd_IWMUB1Oh-8" value="End" style="ellipse;whiteSpace=wrap;html=1;" vertex="1" parent="WIyWlLk6GJQsqaUBKTNV-1">
          <mxGeometry x="120" y="590" width="120" height="80" as="geometry" />
        </mxCell>
        <mxCell id="KwxrxgcA9bd_IWMUB1Oh-11" value="a.&amp;nbsp;" style="text;html=1;strokeColor=none;fillColor=none;align=center;verticalAlign=middle;whiteSpace=wrap;rounded=0;fontStyle=1;fontSize=22;" vertex="1" parent="WIyWlLk6GJQsqaUBKTNV-1">
          <mxGeometry x="70" y="300" width="30" height="30" as="geometry" />
        </mxCell>
        <mxCell id="KwxrxgcA9bd_IWMUB1Oh-12" value="b.&amp;nbsp;" style="text;html=1;strokeColor=none;fillColor=none;align=center;verticalAlign=middle;whiteSpace=wrap;rounded=0;fontStyle=1;fontSize=22;" vertex="1" parent="WIyWlLk6GJQsqaUBKTNV-1">
          <mxGeometry x="70" y="430" width="30" height="30" as="geometry" />
        </mxCell>
        <mxCell id="KwxrxgcA9bd_IWMUB1Oh-13" value="a. Fungsi perhitunganIteratif()" style="text;html=1;strokeColor=none;fillColor=none;align=center;verticalAlign=middle;whiteSpace=wrap;rounded=0;fontStyle=1;fontSize=22;" vertex="1" parent="WIyWlLk6GJQsqaUBKTNV-1">
          <mxGeometry x="320" y="30" width="160" height="30" as="geometry" />
        </mxCell>
        <mxCell id="KwxrxgcA9bd_IWMUB1Oh-16" value="" style="edgeStyle=orthogonalEdgeStyle;rounded=0;orthogonalLoop=1;jettySize=auto;html=1;fillColor=#FF99CC;" edge="1" parent="WIyWlLk6GJQsqaUBKTNV-1" source="KwxrxgcA9bd_IWMUB1Oh-14" target="KwxrxgcA9bd_IWMUB1Oh-15">
          <mxGeometry relative="1" as="geometry" />
        </mxCell>
        <mxCell id="KwxrxgcA9bd_IWMUB1Oh-14" value="perhitunganIteratif&lt;br&gt;(int n)" style="ellipse;whiteSpace=wrap;html=1;fillColor=#FF99CC;" vertex="1" parent="WIyWlLk6GJQsqaUBKTNV-1">
          <mxGeometry x="340" y="90" width="120" height="80" as="geometry" />
        </mxCell>
        <mxCell id="KwxrxgcA9bd_IWMUB1Oh-18" value="" style="edgeStyle=orthogonalEdgeStyle;rounded=0;orthogonalLoop=1;jettySize=auto;html=1;fillColor=#FF99CC;" edge="1" parent="WIyWlLk6GJQsqaUBKTNV-1" source="KwxrxgcA9bd_IWMUB1Oh-15" target="KwxrxgcA9bd_IWMUB1Oh-17">
          <mxGeometry relative="1" as="geometry" />
        </mxCell>
        <mxCell id="KwxrxgcA9bd_IWMUB1Oh-15" value="int total = 0" style="shape=hexagon;perimeter=hexagonPerimeter2;whiteSpace=wrap;html=1;fixedSize=1;fillColor=#FF99CC;" vertex="1" parent="WIyWlLk6GJQsqaUBKTNV-1">
          <mxGeometry x="340" y="190" width="120" height="40" as="geometry" />
        </mxCell>
        <mxCell id="KwxrxgcA9bd_IWMUB1Oh-20" value="" style="edgeStyle=orthogonalEdgeStyle;rounded=0;orthogonalLoop=1;jettySize=auto;html=1;fillColor=#FF99CC;" edge="1" parent="WIyWlLk6GJQsqaUBKTNV-1" source="KwxrxgcA9bd_IWMUB1Oh-17" target="KwxrxgcA9bd_IWMUB1Oh-19">
          <mxGeometry relative="1" as="geometry" />
        </mxCell>
        <mxCell id="KwxrxgcA9bd_IWMUB1Oh-17" value="int i = 1" style="rounded=0;whiteSpace=wrap;html=1;fillColor=#FF99CC;" vertex="1" parent="WIyWlLk6GJQsqaUBKTNV-1">
          <mxGeometry x="340" y="260" width="120" height="30" as="geometry" />
        </mxCell>
        <mxCell id="KwxrxgcA9bd_IWMUB1Oh-22" value="" style="edgeStyle=orthogonalEdgeStyle;rounded=0;orthogonalLoop=1;jettySize=auto;html=1;fillColor=#FF99CC;" edge="1" parent="WIyWlLk6GJQsqaUBKTNV-1" source="KwxrxgcA9bd_IWMUB1Oh-19" target="KwxrxgcA9bd_IWMUB1Oh-21">
          <mxGeometry relative="1" as="geometry" />
        </mxCell>
        <mxCell id="KwxrxgcA9bd_IWMUB1Oh-19" value="" style="ellipse;whiteSpace=wrap;html=1;aspect=fixed;fillColor=#FF99CC;" vertex="1" parent="WIyWlLk6GJQsqaUBKTNV-1">
          <mxGeometry x="385" y="310" width="30" height="30" as="geometry" />
        </mxCell>
        <mxCell id="KwxrxgcA9bd_IWMUB1Oh-24" value="" style="edgeStyle=orthogonalEdgeStyle;rounded=0;orthogonalLoop=1;jettySize=auto;html=1;fillColor=#FF99CC;" edge="1" parent="WIyWlLk6GJQsqaUBKTNV-1" source="KwxrxgcA9bd_IWMUB1Oh-21" target="KwxrxgcA9bd_IWMUB1Oh-23">
          <mxGeometry relative="1" as="geometry" />
        </mxCell>
        <mxCell id="KwxrxgcA9bd_IWMUB1Oh-31" value="Ya" style="edgeLabel;html=1;align=center;verticalAlign=middle;resizable=0;points=[];fillColor=#FF99CC;" vertex="1" connectable="0" parent="KwxrxgcA9bd_IWMUB1Oh-24">
          <mxGeometry x="-0.64" y="2" relative="1" as="geometry">
            <mxPoint as="offset" />
          </mxGeometry>
        </mxCell>
        <mxCell id="KwxrxgcA9bd_IWMUB1Oh-29" style="edgeStyle=orthogonalEdgeStyle;rounded=0;orthogonalLoop=1;jettySize=auto;html=1;entryX=0;entryY=0.5;entryDx=0;entryDy=0;fillColor=#FF99CC;" edge="1" parent="WIyWlLk6GJQsqaUBKTNV-1" source="KwxrxgcA9bd_IWMUB1Oh-21" target="KwxrxgcA9bd_IWMUB1Oh-25">
          <mxGeometry relative="1" as="geometry">
            <Array as="points">
              <mxPoint x="320" y="400" />
              <mxPoint x="320" y="600" />
            </Array>
          </mxGeometry>
        </mxCell>
        <mxCell id="KwxrxgcA9bd_IWMUB1Oh-30" value="Tidak" style="edgeLabel;html=1;align=center;verticalAlign=middle;resizable=0;points=[];fillColor=#FF99CC;" vertex="1" connectable="0" parent="KwxrxgcA9bd_IWMUB1Oh-29">
          <mxGeometry x="-0.8397" y="2" relative="1" as="geometry">
            <mxPoint as="offset" />
          </mxGeometry>
        </mxCell>
        <mxCell id="KwxrxgcA9bd_IWMUB1Oh-21" value="i &amp;lt;= n" style="rhombus;whiteSpace=wrap;html=1;fillColor=#FF99CC;" vertex="1" parent="WIyWlLk6GJQsqaUBKTNV-1">
          <mxGeometry x="360" y="360" width="80" height="80" as="geometry" />
        </mxCell>
        <mxCell id="KwxrxgcA9bd_IWMUB1Oh-27" value="" style="edgeStyle=orthogonalEdgeStyle;rounded=0;orthogonalLoop=1;jettySize=auto;html=1;fillColor=#FF99CC;" edge="1" parent="WIyWlLk6GJQsqaUBKTNV-1" source="KwxrxgcA9bd_IWMUB1Oh-23" target="KwxrxgcA9bd_IWMUB1Oh-26">
          <mxGeometry relative="1" as="geometry" />
        </mxCell>
        <mxCell id="KwxrxgcA9bd_IWMUB1Oh-23" value="total += i" style="rounded=0;whiteSpace=wrap;html=1;fillColor=#FF99CC;" vertex="1" parent="WIyWlLk6GJQsqaUBKTNV-1">
          <mxGeometry x="340" y="470" width="120" height="30" as="geometry" />
        </mxCell>
        <mxCell id="KwxrxgcA9bd_IWMUB1Oh-25" value="return total" style="ellipse;whiteSpace=wrap;html=1;fillColor=#FF99CC;" vertex="1" parent="WIyWlLk6GJQsqaUBKTNV-1">
          <mxGeometry x="340" y="560" width="120" height="80" as="geometry" />
        </mxCell>
        <mxCell id="KwxrxgcA9bd_IWMUB1Oh-28" style="edgeStyle=orthogonalEdgeStyle;rounded=0;orthogonalLoop=1;jettySize=auto;html=1;entryX=1;entryY=0.5;entryDx=0;entryDy=0;fillColor=#FF99CC;" edge="1" parent="WIyWlLk6GJQsqaUBKTNV-1" source="KwxrxgcA9bd_IWMUB1Oh-26" target="KwxrxgcA9bd_IWMUB1Oh-19">
          <mxGeometry relative="1" as="geometry">
            <Array as="points">
              <mxPoint x="480" y="535" />
              <mxPoint x="480" y="325" />
            </Array>
          </mxGeometry>
        </mxCell>
        <mxCell id="KwxrxgcA9bd_IWMUB1Oh-26" value="i++" style="rounded=0;whiteSpace=wrap;html=1;fillColor=#FF99CC;" vertex="1" parent="WIyWlLk6GJQsqaUBKTNV-1">
          <mxGeometry x="340" y="520" width="120" height="30" as="geometry" />
        </mxCell>
        <mxCell id="KwxrxgcA9bd_IWMUB1Oh-32" value="b. Fungsi perhitunganRekursif()" style="text;html=1;strokeColor=none;fillColor=none;align=center;verticalAlign=middle;whiteSpace=wrap;rounded=0;fontStyle=1;fontSize=22;" vertex="1" parent="WIyWlLk6GJQsqaUBKTNV-1">
          <mxGeometry x="610" y="30" width="160" height="30" as="geometry" />
        </mxCell>
        <mxCell id="KwxrxgcA9bd_IWMUB1Oh-35" value="" style="edgeStyle=orthogonalEdgeStyle;rounded=0;orthogonalLoop=1;jettySize=auto;html=1;fillColor=#99FFFF;" edge="1" parent="WIyWlLk6GJQsqaUBKTNV-1" source="KwxrxgcA9bd_IWMUB1Oh-33" target="KwxrxgcA9bd_IWMUB1Oh-34">
          <mxGeometry relative="1" as="geometry" />
        </mxCell>
        <mxCell id="KwxrxgcA9bd_IWMUB1Oh-33" value="perhitunganRekursif&lt;br&gt;(int n)" style="ellipse;whiteSpace=wrap;html=1;fillColor=#99FFFF;" vertex="1" parent="WIyWlLk6GJQsqaUBKTNV-1">
          <mxGeometry x="630" y="90" width="120" height="80" as="geometry" />
        </mxCell>
        <mxCell id="KwxrxgcA9bd_IWMUB1Oh-37" value="" style="edgeStyle=orthogonalEdgeStyle;rounded=0;orthogonalLoop=1;jettySize=auto;html=1;fillColor=#99FFFF;" edge="1" parent="WIyWlLk6GJQsqaUBKTNV-1" source="KwxrxgcA9bd_IWMUB1Oh-34" target="KwxrxgcA9bd_IWMUB1Oh-36">
          <mxGeometry relative="1" as="geometry" />
        </mxCell>
        <mxCell id="KwxrxgcA9bd_IWMUB1Oh-38" value="Tidak" style="edgeLabel;html=1;align=center;verticalAlign=middle;resizable=0;points=[];fillColor=#99FFFF;" vertex="1" connectable="0" parent="KwxrxgcA9bd_IWMUB1Oh-37">
          <mxGeometry x="-0.587" y="-1" relative="1" as="geometry">
            <mxPoint x="1" y="2" as="offset" />
          </mxGeometry>
        </mxCell>
        <mxCell id="KwxrxgcA9bd_IWMUB1Oh-40" style="edgeStyle=orthogonalEdgeStyle;rounded=0;orthogonalLoop=1;jettySize=auto;html=1;entryX=0;entryY=0.5;entryDx=0;entryDy=0;fillColor=#99FFFF;" edge="1" parent="WIyWlLk6GJQsqaUBKTNV-1" source="KwxrxgcA9bd_IWMUB1Oh-34" target="KwxrxgcA9bd_IWMUB1Oh-39">
          <mxGeometry relative="1" as="geometry">
            <Array as="points">
              <mxPoint x="580" y="250" />
              <mxPoint x="580" y="470" />
            </Array>
          </mxGeometry>
        </mxCell>
        <mxCell id="KwxrxgcA9bd_IWMUB1Oh-34" value="n == 1" style="rhombus;whiteSpace=wrap;html=1;fillColor=#99FFFF;" vertex="1" parent="WIyWlLk6GJQsqaUBKTNV-1">
          <mxGeometry x="650" y="210" width="80" height="80" as="geometry" />
        </mxCell>
        <mxCell id="KwxrxgcA9bd_IWMUB1Oh-41" style="edgeStyle=orthogonalEdgeStyle;rounded=0;orthogonalLoop=1;jettySize=auto;html=1;entryX=0.5;entryY=0;entryDx=0;entryDy=0;fillColor=#99FFFF;" edge="1" parent="WIyWlLk6GJQsqaUBKTNV-1" source="KwxrxgcA9bd_IWMUB1Oh-36" target="KwxrxgcA9bd_IWMUB1Oh-39">
          <mxGeometry relative="1" as="geometry" />
        </mxCell>
        <mxCell id="KwxrxgcA9bd_IWMUB1Oh-36" value="perhitunganRekursif&lt;br&gt;(n-1)" style="shape=process;whiteSpace=wrap;html=1;backgroundOutline=1;fillColor=#99FFFF;" vertex="1" parent="WIyWlLk6GJQsqaUBKTNV-1">
          <mxGeometry x="617.5" y="330" width="145" height="60" as="geometry" />
        </mxCell>
        <mxCell id="KwxrxgcA9bd_IWMUB1Oh-39" value="return n" style="ellipse;whiteSpace=wrap;html=1;fillColor=#99FFFF;" vertex="1" parent="WIyWlLk6GJQsqaUBKTNV-1">
          <mxGeometry x="630" y="430" width="120" height="80" as="geometry" />
        </mxCell>
        <mxCell id="KwxrxgcA9bd_IWMUB1Oh-46" value="" style="edgeStyle=orthogonalEdgeStyle;rounded=0;orthogonalLoop=1;jettySize=auto;html=1;" edge="1" parent="WIyWlLk6GJQsqaUBKTNV-1" source="KwxrxgcA9bd_IWMUB1Oh-42" target="KwxrxgcA9bd_IWMUB1Oh-3">
          <mxGeometry relative="1" as="geometry" />
        </mxCell>
        <mxCell id="KwxrxgcA9bd_IWMUB1Oh-42" value="input n" style="shape=parallelogram;perimeter=parallelogramPerimeter;whiteSpace=wrap;html=1;fixedSize=1;" vertex="1" parent="WIyWlLk6GJQsqaUBKTNV-1">
          <mxGeometry x="120" y="230" width="120" height="60" as="geometry" />
        </mxCell>
        <mxCell id="KwxrxgcA9bd_IWMUB1Oh-45" value="" style="edgeStyle=orthogonalEdgeStyle;rounded=0;orthogonalLoop=1;jettySize=auto;html=1;" edge="1" parent="WIyWlLk6GJQsqaUBKTNV-1" source="KwxrxgcA9bd_IWMUB1Oh-43" target="KwxrxgcA9bd_IWMUB1Oh-42">
          <mxGeometry relative="1" as="geometry" />
        </mxCell>
        <mxCell id="KwxrxgcA9bd_IWMUB1Oh-43" value="int n = 0" style="shape=hexagon;perimeter=hexagonPerimeter2;whiteSpace=wrap;html=1;fixedSize=1;" vertex="1" parent="WIyWlLk6GJQsqaUBKTNV-1">
          <mxGeometry x="120" y="170" width="120" height="40" as="geometry" />
        </mxCell>
      </root>
    </mxGraphModel>
  </diagram>
</mxfile>
